<svg viewBox="0 0 100 100" xmlns="http://www.w3.org/2000/svg">
  <!-- DailyFit logo mark — Direction E "the bound page" (favicon variant, flat fills for small sizes) -->
  <g transform="rotate(2.5 54 48)"><rect x="26" y="8" width="56" height="76" rx="4" fill="#DDD2BB"/></g>
  <rect x="14" y="14" width="60" height="80" rx="5" fill="#F5F0E8"/>
  <path d="M 19 14 H 69 A 5 5 0 0 1 74 19 V 27 H 14 V 19 A 5 5 0 0 1 19 14 Z" fill="#4A7C59"/>
  <rect x="19.5" y="18.5" width="22" height="4.5" rx="1.5" fill="#F5F0E8" opacity="0.96"/>
  <rect x="19.5" y="36" width="8" height="8" rx="2" fill="#4A7C59"/>
  <path d="M 21.4 40.2 L 23.3 42.1 L 25.8 37.9" stroke="#F5F0E8" stroke-width="1.7" fill="none" stroke-linecap="round" stroke-linejoin="round"/>
  <line x1="32" y1="40" x2="62" y2="40" stroke="#4A7C59" stroke-width="2.8" stroke-linecap="round" opacity="0.45"/>
  <rect x="19.5" y="54" width="8" height="8" rx="2" fill="none" stroke="#4A7C59" stroke-width="1.6"/>
  <line x1="32" y1="58" x2="60" y2="58" stroke="#4A7C59" stroke-width="2.8" stroke-linecap="round"/>
  <rect x="19.5" y="72" width="8" height="8" rx="2" fill="none" stroke="#4A7C59" stroke-width="1.6"/>
  <line x1="32" y1="76" x2="56" y2="76" stroke="#4A7C59" stroke-width="2.8" stroke-linecap="round"/>
</svg>
